<svg width="952" height="354" viewBox="0 0 952 354" fill="none" xmlns="http://www.w3.org/2000/svg">
<path d="M0 48.5676C36.6154 48.5676 36.6154 191.27 73.2308 191.27C109.846 191.27 109.846 105.649 146.462 105.649C183.077 105.649 183.077 143.703 219.692 143.703C256.308 143.703 256.308 257.865 292.923 257.865C329.538 257.865 329.538 96.1351 366.154 96.1351C402.769 96.1351 402.769 58.0811 439.385 58.0811C476 58.0811 476 219.811 512.615 219.811C549.231 219.811 549.231 238.838 585.846 238.838C622.462 238.838 622.462 305.432 659.077 305.432C695.692 305.432 695.692 1 732.308 1C768.923 1 768.923 77.1081 805.538 77.1081C842.154 77.1081 842.154 353 878.769 353C915.385 353 915.385 286.405 952 286.405M952 286.405V286.405Z" stroke="#222222"/>
</svg>
